<svg xmlns="http://www.w3.org/2000/svg" width="32" height="33.29" viewBox="0 0 32 33.29"><defs><style>.a{fill:#4b4e53;}</style></defs><path class="a" d="M186.077,300.327a1.471,1.471,0,0,0-1.121-.041l-.8.177.428,1.916.8-.177a2.424,2.424,0,0,0,.686-.251.786.786,0,0,0,.36-.4,1,1,0,0,0,.027-.591A.97.97,0,0,0,186.077,300.327Z" transform="translate(-172.291 -279.812)"/><path class="a" d="M93.228,320.108a1.693,1.693,0,0,0-.768-.632,1.668,1.668,0,0,0-1.576.231,1.477,1.477,0,0,0-.428.53,2.161,2.161,0,0,0-.19.774,3.364,3.364,0,0,0,.088.985,3.537,3.537,0,0,0,.34.937,2.065,2.065,0,0,0,.516.638,1.53,1.53,0,0,0,.625.306,1.562,1.562,0,0,0,.686-.007,1.606,1.606,0,0,0,.788-.428,1.7,1.7,0,0,0,.442-.89,3.089,3.089,0,0,0-.054-1.3A3.008,3.008,0,0,0,93.228,320.108Z" transform="translate(-84.773 -297.677)"/><path class="a" d="M41.425,24.361,38.83,13.166A2.781,2.781,0,0,0,35.5,11.087l-3.607.836-7.024-6.6a3.715,3.715,0,1,0-5.638,1.3l-2.792,7.4,2.608-.6,2.269-6.012a3.657,3.657,0,0,0,1.046-.088,3.618,3.618,0,0,0,.978-.38l5.93,5.577L11.645,16.617a2.781,2.781,0,0,0-2.079,3.328L12.161,31.14a2.781,2.781,0,0,0,3.328,2.079l23.849-5.529A2.789,2.789,0,0,0,41.425,24.361ZM21.9,5.327a1.659,1.659,0,1,1,1.243-1.99A1.659,1.659,0,0,1,21.9,5.327ZM19.742,24.68a2.954,2.954,0,0,1-.326,1.155,2.46,2.46,0,0,1-.761.869,3.5,3.5,0,0,1-2.473.543,2.421,2.421,0,0,1-1.06-.469,2.886,2.886,0,0,1-.781-.917,4.432,4.432,0,0,1-.475-1.27,4.36,4.36,0,0,1-.1-1.372,3.008,3.008,0,0,1,.333-1.155,2.506,2.506,0,0,1,.754-.849,3.132,3.132,0,0,1,1.155-.5,3.018,3.018,0,0,1,1.657.048,2.6,2.6,0,0,1,1.243.9,4.813,4.813,0,0,1,.836,3.009Zm4.891-2.262a2.465,2.465,0,0,1-1.542.863L22,23.525l.394,1.773a.919.919,0,0,1-.041.618.583.583,0,0,1-.856.2.886.886,0,0,1-.292-.537l-1.073-4.83a.843.843,0,0,1,.048-.639.784.784,0,0,1,.537-.306l1.528-.34a3.814,3.814,0,0,1,1.066-.122,1.539,1.539,0,0,1,.7.217,1.763,1.763,0,0,1,.537.516,2.328,2.328,0,0,1,.319.781A1.854,1.854,0,0,1,24.633,22.418ZM31.2,23.892a.584.584,0,0,1-.394.231l-3.24.72a.711.711,0,0,1-.6-.061.875.875,0,0,1-.306-.557L25.618,19.51a1.094,1.094,0,0,1-.02-.462.507.507,0,0,1,.183-.306.952.952,0,0,1,.4-.17l3.145-.7a.621.621,0,0,1,.455.041.528.528,0,0,1,.156.706.639.639,0,0,1-.394.231l-2.683.6.34,1.542,2.473-.55a.567.567,0,0,1,.435.041.475.475,0,0,1,.211.312.485.485,0,0,1-.054.38.57.57,0,0,1-.38.224l-2.473.55.394,1.786,2.778-.618a.587.587,0,0,1,.455.048.509.509,0,0,1,.224.34A.475.475,0,0,1,31.2,23.892Zm5.441-.951a.751.751,0,0,1-.3.014.772.772,0,0,1-.279-.1,1.731,1.731,0,0,1-.265-.2c-.088-.082-.17-.163-.258-.251l-3.05-3.152.815,3.675a.845.845,0,0,1-.034.577.511.511,0,0,1-.36.272.5.5,0,0,1-.448-.1.87.87,0,0,1-.272-.509L31.12,18.329a1.341,1.341,0,0,1-.041-.5.672.672,0,0,1,.183-.374.649.649,0,0,1,.353-.2.585.585,0,0,1,.285-.007.706.706,0,0,1,.231.1,1.211,1.211,0,0,1,.231.2c.082.088.17.177.258.272l3.111,3.186L34.9,17.282a.846.846,0,0,1,.027-.577.5.5,0,0,1,.353-.272.519.519,0,0,1,.448.088.87.87,0,0,1,.272.509l1.1,4.932C37.22,22.526,37.071,22.846,36.643,22.941Z" transform="translate(-9.495 0)"/></svg>