<svg xmlns="http://www.w3.org/2000/svg" width="294" height="101.953" viewBox="0 0 294 101.953">
  <g id="Transocean_logo" transform="translate(-1283 -358.047)">
    <g id="Group_1047" data-name="Group 1047" transform="translate(-3797 585)">
      <text id="Digital_Procedures" data-name="Digital Procedures" transform="translate(5145 -134)" fill="#f8bd00" font-size="24" font-family="Quantico-Bold, Quantico" font-weight="700" letter-spacing="0.038em"><tspan x="0" y="0">Digital Procedures</tspan></text>
      <g id="Group_1042" data-name="Group 1042" transform="translate(372.068 1025.047)">
        <g id="Group_1041" data-name="Group 1041" transform="translate(4767.792 -1220.614)">
          <path id="Path_3" data-name="Path 3" d="M125.675,88.592v-24.2H116.27V57.75h27.609v6.638h-9.405v24.2Z" transform="translate(-116.27 -57.75)" fill="#005595" fill-rule="evenodd"/>
          <g id="Group_3" data-name="Group 3" transform="translate(22.603 9.633)">
            <path id="Path_4" data-name="Path 4" d="M176.736,81.185c1.684-3.923,5.8-4.845,10.042-4.845,8.923,0,11.359,3.363,11.359,8.524v7.363c0,2.28.321,4.125,1.441,5.322h-8.4a6.237,6.237,0,0,1-.6-2.84h-.083a8.945,8.945,0,0,1-7.161,3.726c-2.72,0-7.8-1.042-7.8-6.363,0-4.56,2.679-6.721,9.6-6.721,3.8,0,5.4-1.042,5.4-2.4,0-1.922-1.441-2.524-3.083-2.524-1.72,0-3.4.715-3.119,2.923h-7.6s-2-.041-3.042-.041c-3.923,0-5.482,2.482-5.482,6.2v8.042H159.89V77.226h8v3.363h.119c1.684-3.2,3.4-4.244,8.721-4.244v4.84M190.5,86.947c-1.8,1.881-6.84,1.2-6.84,4.6a2.618,2.618,0,0,0,2.757,2.56c2.083,0,3.721-1.435,3.8-2.923Z" transform="translate(-159.89 -76.34)" fill="#005595" fill-rule="evenodd"/>
            <path id="Path_5" data-name="Path 5" d="M239.8,97.554V77.231h8.161v3.477h.078c1.2-3.4,4.125-4.358,7.12-4.358a7.2,7.2,0,0,1,7.322,7.286V97.554H254.2V85.387c0-2.119-.917-3.037-2.757-3.037a3.5,3.5,0,0,0-3.363,3.638V97.549H239.8" transform="translate(-198.392 -76.345)" fill="#005595" fill-rule="evenodd"/>
            <path id="Path_6" data-name="Path 6" d="M294.27,91.989a3.95,3.95,0,0,0,.922,2.042,3.512,3.512,0,0,0,2.2.679c1.881,0,3.125-.757,3.125-2.435,0-4-13.6,0-13.6-8.281,0-5.441,4.762-7.643,11.359-7.643,4.482,0,9.322,1.4,9.6,6.679h-7.721a2.391,2.391,0,0,0-.6-2.119,3.068,3.068,0,0,0-2.119-.834c-1.119,0-2.8.435-2.8,2,0,4.363,13.727.321,13.727,9.084,0,5.8-6.358,7.286-11.281,7.286-4.125,0-10.483-1.244-10.483-6.446h7.68" transform="translate(-220.936 -76.345)" fill="#005595" fill-rule="evenodd"/>
            <path id="Path_7" data-name="Path 7" d="M342.511,98.43c-8.6,0-12.841-4.845-12.841-11.048,0-6.161,4.244-11.042,12.841-11.042s12.841,4.881,12.841,11.042c.005,6.208-4.234,11.048-12.841,11.048m0-4.762c2.643,0,4.125-2.078,4.125-6.28s-1.482-6.275-4.125-6.275-4.12,2.083-4.12,6.275,1.482,6.28,4.12,6.28" transform="translate(-241.693 -76.34)" fill="#005595" fill-rule="evenodd"/>
            <path id="Path_8" data-name="Path 8" d="M395.641,84.438a4.043,4.043,0,0,0-.959-2.161,2.877,2.877,0,0,0-2.161-.8c-2.161,0-3.524,1.959-3.524,5.643,0,5.275,1.8,6.2,3.6,6.2,2.524,0,3.119-1.4,3.322-3.2H404.2a7.815,7.815,0,0,1-3.84,6.524,15.75,15.75,0,0,1-7.918,1.8c-6.845,0-12.2-4-12.2-11.167,0-5.12,4.161-10.918,12.364-10.918,5.8,0,10.763,2.964,11.6,8.084h-8.566" transform="translate(-266.058 -76.35)" fill="#005595" fill-rule="evenodd"/>
            <path id="Path_9" data-name="Path 9" d="M449.543,91.43c-1.679,4.84-6.638,7-11.483,7-6.441,0-12.12-3.643-12.12-10.685,0-7.477,5.083-11.405,12.2-11.405,9.161,0,12.281,6.762,11.841,12.685H433.7c.28,3.078,1.637,4.923,4.441,4.923a3.927,3.927,0,0,0,3.721-2.524h7.68M442.227,84.7a4.223,4.223,0,0,0-4.239-4,4.315,4.315,0,0,0-4.28,4Z" transform="translate(-288.077 -76.34)" fill="#005595" fill-rule="evenodd"/>
            <path id="Path_10" data-name="Path 10" d="M474.337,83.029c.881-5.4,5.6-6.679,10.483-6.679,8.923,0,11.359,3.363,11.359,8.524v7.358c0,2.28.321,4.125,1.441,5.322h-8.4a6.105,6.105,0,0,1-.6-2.84h-.083c-1.72,2.762-5.2,3.726-7.161,3.726-2.72,0-7.8-1.042-7.8-6.363,0-4.56,2.679-6.721,9.6-6.721,3.8,0,5.4-1.042,5.4-2.4,0-1.922-1.441-2.524-3.083-2.524-1.72,0-3.125.684-3.2,2.6h-7.954m14.2,3.917c-1.8,1.881-6.84,1.2-6.84,4.6a2.642,2.642,0,0,0,2.757,2.56c2.083,0,3.726-1.435,3.8-2.923Z" transform="translate(-311.026 -76.345)" fill="#005595" fill-rule="evenodd"/>
            <path id="Path_11" data-name="Path 11" d="M522.14,97.554V77.231h8.2v3.477h.083c1.2-3.4,4.125-4.358,7.078-4.358a7.22,7.22,0,0,1,7.363,7.286V97.554h-8.322V85.387c0-2.119-.881-3.037-2.757-3.037a3.487,3.487,0,0,0-3.322,3.638V97.549H522.14" transform="translate(-334.428 -76.345)" fill="#005595" fill-rule="evenodd"/>
          </g>
        </g>
        <g id="Group_1040" data-name="Group 1040" transform="translate(4707.932 -1252)">
          <g id="Group_1" data-name="Group 1" transform="translate(0 0)">
            <path id="Path_1" data-name="Path 1" d="M0,7.943C0,3.631,18.031,0,40.251,0,62.507,0,80.538,3.631,80.538,7.943c0,4.271-18.026,7.871-40.287,7.871C18.031,15.814,0,12.214,0,7.943m42.187,7.431c12.336-.789,22.22-4.665,22.061-8.89-.2-4.23-10.36-6.637-22.7-5.971C29.179,1.3,19.3,5.172,19.49,9.4c.159,4.235,10.319,6.765,22.7,5.971" transform="translate(0 0)" fill="#d71a21" fill-rule="evenodd"/>
          </g>
          <path id="Path_2" data-name="Path 2" d="M69.25,15.983V63.546L80,48.05V.84Z" transform="translate(-33.787 -0.41)" fill="#d71a21"/>
        </g>
      </g>
    </g>
  </g>
</svg>
